General
Complete name                    : 2012.2009.DVDRip.XviD-Emery.avi
Format                           : AVI
Format/Info                      : Audio Video Interleave
File size                        : 704 MiB
Duration                         : 2h 37mn
Overall bit rate                 : 624 Kbps
Writing application              : VirtualDubMod 1.5.10.2 (build 2540/release)
Writing library                  : VirtualDubMod build 2540/release

Video
ID                               : 0
Format                           : MPEG-4 Visual
Format profile                   : AdvancedSimple@L5
Format settings, BVOP            : Yes
Format settings, QPel            : No
Format settings, GMC             : No warppoints
Format settings, Matrix          : Default (H.263)
Muxing mode                      : Packed bitstream
Codec ID                         : XVID
Codec ID/Hint                    : XviD
Duration                         : 2h 37mn
Bit rate                         : 484 Kbps
Width                            : 512 pixels
Height                           : 224 pixels
Display aspect ratio             : 2.25:1
Frame rate                       : 29.970 fps
Resolution                       : 24 bits
Colorimetry                      : 4:2:0
Scan type                        : Progressive
Bits/(Pixel*Frame)               : 0.141
Stream size                      : 547 MiB (78%)
Writing library                  : XviD 1.2.1 (UTC 2008-12-04)

Audio
ID                               : 1
Format                           : MPEG Audio
Format version                   : Version 1
Format profile                   : Layer 3
Format settings, Mode            : Joint stereo / MS Stereo
Codec ID                         : 55
Codec ID/Hint                    : MP3
Duration                         : 2h 37mn
Bit rate mode                    : Constant
Bit rate                         : 128 Kbps
Channel(s)                       : 2 channels
Sampling rate                    : 48.0 KHz
Resolution                       : 16 bits
Stream size                      : 144 MiB (21%)
Alignment                        : Aligned on interleaves
Interleave, duration             : 33 ms (1.00 video frame)
Interleave, preload duration     : 504 ms
 
http://www.imdb.com/title/tt1190080/

PLOT
An epic adventure about a global cataclysm that
brings an end to the world and tells of the heroic struggle of the survivors. 